<svg id="Capa_1" data-name="Capa 1" xmlns="http://www.w3.org/2000/svg" viewBox="0 0 255.73 318.51"><defs><style>.cls-1{fill:#32cc7c;}.cls-1,.cls-2,.cls-3{fill-rule:evenodd;}.cls-2{fill:#095d7e;}.cls-3{fill:#41805e;}</style></defs><title>ico13</title><path class="cls-1" d="M124.92,127.72,106,137.65l-5.22,2.71a47.49,47.49,0,0,0-20.46,63.13c15.24,30.65,122.19,137.4,152.9,152.7a47.63,47.63,0,0,0,63.25-20.51l2.74-5.12,9.92-18.86-54.5-30.49L249.76,293a22.2,22.2,0,0,1-33.53,9.48c-5.41-3.91-78.22-76.59-82.07-81.89a22.1,22.1,0,0,1,9.5-33.46l11.71-4.88-30.45-54.5Z" transform="translate(-75.39 -42.61)"/><path class="cls-2" d="M124.83,127.72,106,137.64l31.45,53.24a20,20,0,0,1,6.13-3.84l11.8-5-30.51-54.35Z" transform="translate(-75.39 -42.61)"/><path class="cls-2" d="M254.8,281.51l-4.88,11.8a24.17,24.17,0,0,1-3.91,6.23l53.24,31.37,9.9-18.88L254.8,281.51Z" transform="translate(-75.39 -42.61)"/><path class="cls-2" d="M291.36,48.3c-.67-.33-1.36-.65-2.05-.95a56,56,0,0,0-77.14,63.24l-15.92,29,33,.59A56,56,0,1,0,291.36,48.3Z" transform="translate(-75.39 -42.61)"/><polygon class="cls-3" points="64.7 63.14 36.04 80.04 78.77 152.37 107.42 135.56 64.7 63.14 64.7 63.14 64.7 63.14"/><polygon class="cls-3" points="183.36 211.43 166.5 240.17 238.85 282.81 255.73 254.17 183.36 211.43 183.36 211.43 183.36 211.43"/></svg>