<svg id="Capa_1" data-name="Capa 1" xmlns="http://www.w3.org/2000/svg" viewBox="0 0 313.41 338.64"><defs><style>.cls-1{fill:#32cc7c;}.cls-1,.cls-2,.cls-3,.cls-4{fill-rule:evenodd;}.cls-2{fill:#d57555;}.cls-3{fill:#150f80;}.cls-4{fill:#f2f2f2;}</style></defs><title>ico15</title><polygon class="cls-1" points="160.42 0 123.45 36.93 98.03 62.33 222.78 62.33 160.42 0 160.42 0 160.42 0"/><polygon class="cls-2" points="22.31 53.47 291.13 53.47 291.13 304.45 22.31 304.45 22.31 53.47 22.31 53.47"/><polygon class="cls-1" points="0 144.08 0 338.64 313.41 338.64 313.41 144.08 296.74 156.08 156.69 256.48 0 144.08 0 144.08 0 144.08"/><polygon class="cls-3" points="313.41 144.08 297.07 156.08 297.07 338.64 313.41 338.64 313.41 144.08 313.41 144.08 313.41 144.08"/><polygon class="cls-4" points="59.44 90.58 90.58 90.58 90.58 121.75 59.44 121.75 59.44 90.58 59.44 90.58"/><path class="cls-4" d="M160.12,143.57c-6.88,0-6.88,10.34,0,10.34h96.4a5.17,5.17,0,0,0,0-10.34Z" transform="translate(-43.29 -30.68)"/><path class="cls-4" d="M114,186.64c-6.79,0-6.79,8.87,0,8.87h53.49c2.8,0,5.07-2,5.07-4.42s-2.27-4.45-5.07-4.45Z" transform="translate(-43.29 -30.68)"/><path class="cls-4" d="M76.57,333.7a5,5,0,0,0-4.95,5.18,5.13,5.13,0,0,0,5.1,5.16h41.65a5.17,5.17,0,0,0,0-10.34H76.57Z" transform="translate(-43.29 -30.68)"/></svg>