<?xml version="1.0" standalone="no"?><!-- Generator: Gravit.io --><svg xmlns="http://www.w3.org/2000/svg" xmlns:xlink="http://www.w3.org/1999/xlink" style="isolation:isolate" viewBox="0 0 91 91" width="91" height="91"><defs><clipPath id="_clipPath_RixOpsFDjWl3TSNeuQhkzCMpIqwfo1H1"><rect width="91" height="91"/></clipPath></defs><g clip-path="url(#_clipPath_RixOpsFDjWl3TSNeuQhkzCMpIqwfo1H1)"><path d=" M 56.016 63.649 L 69.109 50.556 L 20.222 50.556 L 20.222 40.444 L 69.109 40.444 L 56.016 27.351 L 63.194 20.222 L 88.472 45.5 L 63.194 70.778 L 56.016 63.649 Z  M 80.889 0 C 86.473 0 91 4.527 91 10.111 L 91 33.721 L 80.889 23.609 L 80.889 10.111 L 10.111 10.111 L 10.111 80.889 L 80.889 80.889 L 80.889 67.391 L 91 57.279 L 91 80.889 C 91 86.473 86.473 91 80.889 91 L 10.111 91 C 4.499 91 0 86.45 0 80.889 L 0 10.111 C 0 4.499 4.499 0 10.111 0 L 80.889 0 Z " fill="rgb(255,255,255)"/></g></svg>