<svg id="Capa_1" data-name="Capa 1" xmlns="http://www.w3.org/2000/svg" viewBox="0 0 272.77 302.75"><defs><style>.cls-1{fill:#32cc7c;}.cls-1,.cls-2,.cls-3,.cls-4{fill-rule:evenodd;}.cls-2{fill:#d57555;}.cls-3{fill:#095d7e;}.cls-4{fill:#41805e;}</style></defs><title>ico14</title><path class="cls-1" d="M200.65,48.63c-1.83,0-3.7,0-5.52.11A136.94,136.94,0,0,0,93.79,270.53l-3.73,80.84,73.09-34.19a136.09,136.09,0,0,0,150.94-55.63A136.95,136.95,0,0,0,200.65,48.63Z" transform="translate(-64.29 -48.63)"/><path class="cls-2" d="M139.7,97.62l-14.54,7.63-4,2.09a36.53,36.53,0,0,0-15.73,48.55c11.72,23.58,94,105.68,117.6,117.45a36.64,36.64,0,0,0,48.64-15.77l2.11-3.94,7.63-14.51-41.92-23.45-3.76,9.05A17.06,17.06,0,0,1,209.93,232c-4.17-3-60.17-58.91-63.13-63a17,17,0,0,1,7.31-25.73l9-3.76L139.7,97.62Z" transform="translate(-64.29 -48.63)"/><path class="cls-3" d="M139.63,97.62l-14.52,7.63L149.3,146.2a15.23,15.23,0,0,1,4.72-2.95l9.07-3.83-23.46-41.8Z" transform="translate(-64.29 -48.63)"/><path class="cls-3" d="M239.59,215.9,235.84,225a18.92,18.92,0,0,1-3,4.79l40.95,24.13,7.61-14.52-41.8-23.48Z" transform="translate(-64.29 -48.63)"/><polygon class="cls-4" points="87.07 32.1 65.03 45.09 97.9 100.72 119.92 87.8 87.07 32.1 87.07 32.1 87.07 32.1"/><polygon class="cls-4" points="178.34 146.15 165.37 168.25 221.02 201.05 234 179.02 178.34 146.15 178.34 146.15 178.34 146.15"/></svg>