<?xml version="1.0" standalone="no"?><!-- Generator: Gravit.io --><svg xmlns="http://www.w3.org/2000/svg" xmlns:xlink="http://www.w3.org/1999/xlink" style="isolation:isolate" viewBox="0 0 90.778 87.525" width="90.778" height="87.525"><defs><clipPath id="_clipPath_IYt9ytKFvEPOOszXNSYKEjXq3eCmVKoA"><rect width="90.778" height="87.525"/></clipPath></defs><g clip-path="url(#_clipPath_IYt9ytKFvEPOOszXNSYKEjXq3eCmVKoA)"><g id="icono-configuracion"><path d=" M 89.203 33.542 C 89.369 32.914 89.281 32.246 88.959 31.683 L 77.619 12.068 C 76.94 10.9 75.445 10.498 74.275 11.175 L 64.763 16.665 C 63.013 15.412 61.141 14.329 59.167 13.434 L 59.167 2.447 C 59.167 1.095 58.072 0 56.718 0 L 34.054 0 C 32.701 0 31.607 1.095 31.607 2.447 L 31.607 13.436 C 29.759 14.277 27.993 15.286 26.325 16.451 L 16.868 10.846 C 16.309 10.516 15.644 10.422 15.015 10.582 C 14.387 10.744 13.845 11.146 13.515 11.705 L 1.961 31.196 C 1.631 31.753 1.535 32.421 1.696 33.051 C 1.858 33.679 2.261 34.218 2.82 34.549 L 12.281 40.152 C 12.13 41.427 12.057 42.617 12.057 43.762 C 12.057 44.777 12.117 45.831 12.242 46.996 L 2.716 52.499 C 2.154 52.825 1.743 53.36 1.577 53.985 C 1.407 54.612 1.497 55.281 1.821 55.842 L 13.156 75.459 C 13.832 76.629 15.331 77.032 16.5 76.353 L 26.014 70.86 C 27.766 72.116 29.64 73.196 31.608 74.091 L 31.608 85.079 C 31.608 86.432 32.702 87.525 34.055 87.525 L 56.718 87.525 C 58.072 87.525 59.167 86.432 59.167 85.079 L 59.167 74.092 C 61.013 73.253 62.78 72.241 64.446 71.075 L 73.909 76.68 C 75.069 77.369 76.573 76.984 77.262 75.821 L 88.814 56.331 C 89.143 55.772 89.238 55.104 89.079 54.477 C 88.917 53.848 88.514 53.309 87.953 52.979 L 78.498 47.376 C 78.651 46.092 78.723 44.915 78.723 43.765 C 78.723 42.738 78.661 41.671 78.538 40.528 L 88.062 35.029 C 88.623 34.706 89.035 34.169 89.203 33.542 Z  M 58.495 43.762 C 58.495 50.989 52.614 56.87 45.385 56.87 C 38.158 56.87 32.28 50.989 32.28 43.762 C 32.28 36.538 38.158 30.658 45.385 30.658 C 52.615 30.658 58.495 36.538 58.495 43.762 Z " fill="rgb(255,255,255)"/></g></g></svg>