<svg id="Capa_1" data-name="Capa 1" xmlns="http://www.w3.org/2000/svg" viewBox="0 0 340.24 293"><defs><style>.cls-1{fill:#095d7e;}.cls-1,.cls-3,.cls-5{fill-rule:evenodd;}.cls-2{fill:#f2f2f2;}.cls-3,.cls-4{fill:none;stroke:#150f80;stroke-miterlimit:10;stroke-width:10px;}.cls-5{fill:#150f80;}</style></defs><title>ico1</title><polygon class="cls-1" points="169.05 223.8 149.13 245.56 144.16 266.9 196.1 266.9 191.13 245.56 169.05 223.8 169.05 223.8 169.05 223.8"/><polygon class="cls-1" points="149.38 245.38 144.42 266.13 139.26 287.5 201 287.5 195.84 266.13 190.88 245.38 149.38 245.38 149.38 245.38"/><rect class="cls-2" x="8.14" width="324" height="243"/><path class="cls-3" d="M34.88,173V279.48A21.81,21.81,0,0,0,56.6,301.36H343.4a21.81,21.81,0,0,0,21.72-21.88V272" transform="translate(-29.88 -56)"/><polyline class="cls-3" points="152.14 243 134.14 288 206.14 288 188.14 243"/><line class="cls-4" x1="107.14" y1="288" x2="233.14" y2="288"/><path class="cls-5" d="M169.3,142.6a5.8,5.8,0,0,0-3.39,1.1l-47.09,30.58a6.47,6.47,0,0,0-2.58,5.13,5.89,5.89,0,0,0,2.58,4.94l47.09,30.75a6.44,6.44,0,0,0,3.17,1,6.28,6.28,0,0,0,5.15-2.77,6,6,0,0,0-1.8-8.29l-39.17-25.63,39.17-25.84a6,6,0,0,0,1.8-8.3,5.91,5.91,0,0,0-4.93-2.67Z" transform="translate(-29.88 -56)"/><path class="cls-5" d="M232.89,142.6a5.8,5.8,0,0,1,3.39,1.1l47.1,30.58a6.48,6.48,0,0,1,2.57,5.13,5.91,5.91,0,0,1-2.57,4.94l-47.1,30.75a6.44,6.44,0,0,1-3.17,1,6.25,6.25,0,0,1-5.14-2.77,6,6,0,0,1,1.79-8.29l39.18-25.63-39.18-25.84a6,6,0,0,1-1.79-8.3,5.89,5.89,0,0,1,4.92-2.67Z" transform="translate(-29.88 -56)"/><path class="cls-5" d="M214.39,121a6.11,6.11,0,0,0-5.77,4.39L179.74,230.16a6,6,0,0,0,4.17,7.28,4.71,4.71,0,0,0,1.57.2,6.18,6.18,0,0,0,5.94-4.33l28.86-104.73a6,6,0,0,0-4.14-7.28,6.4,6.4,0,0,0-1.75-.26Z" transform="translate(-29.88 -56)"/></svg>