<svg id="Capa_1" data-name="Capa 1" xmlns="http://www.w3.org/2000/svg" viewBox="0 0 322.83 247.95"><defs><style>.cls-1{fill:#150f80;}.cls-1,.cls-2,.cls-3,.cls-4{fill-rule:evenodd;}.cls-2{fill:#e6ebef;}.cls-3{fill:#e8edf1;}.cls-4{fill:#095d7e;}</style></defs><title>ico11</title><polygon class="cls-1" points="49.15 0 322.83 0 322.83 16.38 49.15 16.38 49.15 0 49.15 0"/><path class="cls-2" d="M147.66,130.4c7.28,0,7.28,10.84,0,10.84h-29c-7.28,0-7.28-10.84,0-10.84Zm15.82,17.14c7.29,0,7.29,10.94,0,10.94H118.62c-7.28,0-7.28-10.94,0-10.94Zm0,17.14c7.29,0,7.29,10.93,0,10.93H118.62c-7.28,0-7.28-10.93,0-10.93Zm0,17.22c7.29,0,7.29,10.85,0,10.85H118.62c-7.28,0-7.28-10.85,0-10.85Zm86.13-34a5.44,5.44,0,0,1,5.44,5.43v84.8a5.37,5.37,0,0,1-5.26,5.42h-22.3a5.37,5.37,0,0,1-5.27-5.42v-84.8a5.45,5.45,0,0,1,5.45-5.43Zm-39.13,26.44a5.45,5.45,0,0,1,5.45,5.51v58.28a5.52,5.52,0,0,1-5.45,5.52H188.54a5.51,5.51,0,0,1-5.45-5.52V179.87H183a5.45,5.45,0,0,1,5.45-5.51Zm78.25-12.68a5.52,5.52,0,0,1,5.55,5.41v71.06a5.6,5.6,0,0,1-5.55,5.52H266.9a5.45,5.45,0,0,1-5.45-5.52V167.09a5.37,5.37,0,0,1,5.45-5.41Zm39.23-45a5.44,5.44,0,0,1,5.45,5.51v116a5.52,5.52,0,0,1-5.45,5.52H306.13a5.54,5.54,0,0,1-5.55-5.52v-116a5.44,5.44,0,0,1,5.45-5.51ZM95.9,98.27v97h13.58a5.37,5.37,0,0,1,5.35,5.43v8.9a63.48,63.48,0,0,1,9.91,4.06l6.31-6.28a5.37,5.37,0,0,1,7.67,0l16.61,16.56a5.46,5.46,0,0,1,0,7.73L149,238a58.92,58.92,0,0,1,4.18,9.88h8.94a5.41,5.41,0,0,1,5.43,5.41v5.23H353.21V98.27Z" transform="translate(-38.59 -76.03)"/><polygon class="cls-3" points="57.31 16.39 57.31 119.28 65.28 119.28 65.28 28.88 314.62 28.88 314.62 16.39 57.31 16.39 57.31 16.39"/><path class="cls-4" d="M98.29,230.73a34.13,34.13,0,0,1,34.13,34.2v2.52a5,5,0,0,1-.21,1.35v.69c-.1.48-.2.87-.28,1.35a1.25,1.25,0,0,1-.1.59c-.1.48-.2,1-.3,1.55l-.1.3c-.19.67-.29,1.26-.49,1.84,0,.2-.18.38-.18.59a12.12,12.12,0,0,0-.49,1.25c-.1.4-.78.48-.88.79s-.29.58-.39.86-.28.59-.38,1l-.28.59a34.22,34.22,0,0,1-8.85,11.08c-.89.67-1.76,1.35-2.63,2a12.69,12.69,0,0,0-1.27.77l-.39.2-1,.48-.38.29-1.27.58h-.11a7.37,7.37,0,0,1-1.25.69l-.4.1-1.07.48-.49.1-1.35.49h-.1a6.4,6.4,0,0,1-1.36.38H106l-1.07.28h-.49l-1.45.31c-.49.1-1.07.1-1.56.18h-.3l-1.25.1h-4l-1.16-.1h-.4c-.48-.08-1-.08-1.56-.18h-.08l-.78-.2-.59-.11H91a28.28,28.28,0,0,1-3.11-.76h-.21L86.43,297l-.2-.1c-1-.38-2-.78-3-1.27h-.1l-.69-.38L82,295l-.49-.19-.77-.58h-.1l-.38-.2c-.49-.29-.89-.49-1.28-.77l-.1-.1a34.41,34.41,0,0,1-12.14-14.68c0-.08-.1-.18-.2-.28a3.36,3.36,0,0,0-.18-.69l-.2-.48a7.1,7.1,0,0,1-.59-1.66v-.18a29.65,29.65,0,0,1-1.07-3.89V271c-.1-.58-.1-1.07-.18-1.65a.88.88,0,0,0-.1-.49c0-.48-.11-1-.11-1.45v-2.52a34.19,34.19,0,0,1,34.23-34.2Zm-6.91-24.87v7.67a5.53,5.53,0,0,1-4.28,5.35,47.21,47.21,0,0,0-14.57,6,5.48,5.48,0,0,1-2.91.85,5.22,5.22,0,0,1-3.8-1.61l-5.45-5.35-8.95,8.84,5.45,5.43a5.42,5.42,0,0,1,.77,6.8,46.26,46.26,0,0,0-6,14.58,5.53,5.53,0,0,1-5.36,4.18H38.59v12.61h7.67a5.53,5.53,0,0,1,5.36,4.18,46,46,0,0,0,6,14.58,5.43,5.43,0,0,1-.77,6.8l-5.45,5.43,8.95,8.84,5.45-5.43a5.29,5.29,0,0,1,3.76-1.53,5.57,5.57,0,0,1,3,.85,46.26,46.26,0,0,0,14.57,6,5.53,5.53,0,0,1,4.28,5.35V324h12.55V316.3a5.62,5.62,0,0,1,4.26-5.35,46.37,46.37,0,0,0,14.59-6,5.57,5.57,0,0,1,3-.85,5.63,5.63,0,0,1,3.86,1.53l5.45,5.43,8.83-8.84-5.43-5.43a5.57,5.57,0,0,1-.79-6.8,45.77,45.77,0,0,0,6.14-14.58,5.39,5.39,0,0,1,5.23-4.18h7.7V258.61H149a5.39,5.39,0,0,1-5.23-4.18,46.06,46.06,0,0,0-6.14-14.58,5.56,5.56,0,0,1,.79-6.8l5.43-5.43L135,218.78l-5.45,5.35a5.51,5.51,0,0,1-3.9,1.61,5.38,5.38,0,0,1-2.91-.85,47.32,47.32,0,0,0-14.59-6,5.62,5.62,0,0,1-4.26-5.35v-7.67Z" transform="translate(-38.59 -76.03)"/><path class="cls-1" d="M118.53,129.83c-7.42,0-7.42,11.68,0,11.68h29.6c7.42,0,7.42-11.68,0-11.68Z" transform="translate(-38.59 -76.03)"/><path class="cls-1" d="M118.41,164.94a5.25,5.25,0,1,0,0,10.49h45.05a5.25,5.25,0,1,0,0-10.49Z" transform="translate(-38.59 -76.03)"/></svg>