<svg id="Capa_1" data-name="Capa 1" xmlns="http://www.w3.org/2000/svg" viewBox="0 0 305.84 305.53"><defs><style>.cls-1{fill:#f2f2f2;}.cls-1,.cls-2,.cls-3,.cls-4{fill-rule:evenodd;}.cls-2{fill:#095d7e;}.cls-3{fill:#41805e;}.cls-4{fill:#32cc7c;}</style></defs><title>ico10</title><path class="cls-1" d="M145.51,67a12,12,0,0,0-12,11.92v72A45.32,45.32,0,0,0,178.73,196h21.49a45.38,45.38,0,0,0,45.23-45.16v-72a12,12,0,0,0-12-11.92Z" transform="translate(-47.66 -47.23)"/><path class="cls-2" d="M297.76,103.87c-.2,0-.38,0-.59,0H77.53a30.19,30.19,0,0,0-14,56.77,31.94,31.94,0,0,0,14,3.77H297.17a26.82,26.82,0,0,0,12.18-2.89l26.81-14.09,13.58-7.22a6.91,6.91,0,0,0,0-12.26l-13.58-7.1-26.81-14.09a25.71,25.71,0,0,0-11.59-2.91Z" transform="translate(-47.66 -47.23)"/><path class="cls-3" d="M297,102.57v61.31l-.23.55h.55a26.18,26.18,0,0,0,12.13-3l26.73-14.37,13.54-7.36a7.1,7.1,0,0,0,0-12.5L336.22,120l-26.73-14.38a26.42,26.42,0,0,0-12.13-3.06Z" transform="translate(-47.66 -47.23)"/><polygon class="cls-3" points="30.53 56.66 58.19 56.66 58.19 117.19 30.53 117.19 30.53 56.66 30.53 56.66"/><path class="cls-1" d="M147.39,47.23A13.84,13.84,0,0,0,133.5,60.75v44.09a13.76,13.76,0,0,0,13.89,13.51h.32a13.7,13.7,0,0,0,13.66-12.13A13.75,13.75,0,0,0,175,118.35h.54a13.73,13.73,0,0,0,13.69-11.48,13.86,13.86,0,0,0,13.66,11.48h1.42a13.72,13.72,0,0,0,13.43-10.72,13.9,13.9,0,0,0,13.57,10.72h.32a13.6,13.6,0,0,0,13.78-13.51V60.75a13.68,13.68,0,0,0-13.78-13.52h-.32A13.91,13.91,0,0,0,217.78,58a13.73,13.73,0,0,0-13.43-10.73h-1.42a13.86,13.86,0,0,0-13.66,11.6,13.73,13.73,0,0,0-13.69-11.6H175a13.88,13.88,0,0,0-13.67,12.14,13.83,13.83,0,0,0-13.66-12.14Z" transform="translate(-47.66 -47.23)"/><path class="cls-4" d="M254.25,64.38a9,9,0,0,0-9,9v32.13a5.26,5.26,0,0,1-4.35,5.2A75.07,75.07,0,0,0,179.62,184a12.11,12.11,0,0,0,12.1,12h29.41a52.08,52.08,0,0,0,52-51.77V83a18.87,18.87,0,0,0-18.86-18.65Z" transform="translate(-47.66 -47.23)"/><path class="cls-1" d="M165.3,193.45a11.92,11.92,0,0,0-12,11.78V340.88a12,12,0,0,0,12,11.89h72.15a12,12,0,0,0,11.93-11.89V205.23a11.88,11.88,0,0,0-11.93-11.78Z" transform="translate(-47.66 -47.23)"/><path class="cls-3" d="M149.12,176.3a17.09,17.09,0,0,0-16.91,17.16v15.83a17.08,17.08,0,0,0,16.91,17.06H257.49a17.08,17.08,0,0,0,16.91-17.06V193.46a17.09,17.09,0,0,0-16.91-17.16Z" transform="translate(-47.66 -47.23)"/></svg>