<svg id="Capa_1" data-name="Capa 1" xmlns="http://www.w3.org/2000/svg" viewBox="0 0 304.66 315"><defs><style>.cls-1{fill:#095d7e;}.cls-1,.cls-2,.cls-3,.cls-4,.cls-5{fill-rule:evenodd;}.cls-2{fill:#f2f2f2;}.cls-3{fill:#32cc7c;}.cls-4{fill:#41805e;}.cls-5{fill:#150f80;}</style></defs><title>ico12</title><path class="cls-1" d="M215,75a16.45,16.45,0,0,0-16.48,16.53v88.1A16.42,16.42,0,0,0,215,196h16.5l-9.17,36.7A2.76,2.76,0,0,0,225,236.2a2.87,2.87,0,0,0,1.62-.51l54.23-39.52h55a16.54,16.54,0,0,0,16.5-16.53V91.54A16.43,16.43,0,0,0,336,75Z" transform="translate(-47.67 -42.5)"/><polygon class="cls-2" points="217.4 0 222.95 87.23 234.03 87.23 239.56 0 217.4 0 217.4 0"/><path class="cls-2" d="M276.15,147.48a11.08,11.08,0,1,0,11.08,11.08,11.12,11.12,0,0,0-11.08-11.08Z" transform="translate(-47.67 -42.5)"/><polygon class="cls-3" points="60.66 199.66 127.17 199.66 127.17 248.42 60.66 248.42 60.66 199.66 60.66 199.66"/><path class="cls-4" d="M108.4,280.59,62.28,297.31A22,22,0,0,0,47.67,318V357.5H235.5V318a22.35,22.35,0,0,0-14.61-20.65l-46.25-16.72-33.12,11-33.12-11Z" transform="translate(-47.67 -42.5)"/><path class="cls-5" d="M95,73.56c-41.41-20.71-41.41,41.08-35.29,80.53l6.18,40.18h145.5l6.18-40.18c6.12-39.45-24.57-75-64.59-75Z" transform="translate(-47.67 -42.5)"/><path class="cls-2" d="M107.89,128.66a27.61,27.61,0,0,0-26.83,33.71A9.63,9.63,0,0,1,71.74,174H66.1a12.62,12.62,0,0,0,0,25.24h7.71c2.59,34.2,30.85,60.62,64.84,60.62s62.18-26.42,64.77-60.62h7.73a12.62,12.62,0,0,0,0-25.24h-5.66a9.56,9.56,0,0,1-9.23-11.67,27.69,27.69,0,0,0-26.86-33.71Z" transform="translate(-47.67 -42.5)"/><path class="cls-1" d="M107.9,181.87a4.74,4.74,0,0,0-4.73,4.8v5.12a4.69,4.69,0,1,0,9.37,0v-5.12a4.72,4.72,0,0,0-4.64-4.8Z" transform="translate(-47.67 -42.5)"/><path class="cls-1" d="M168.14,181.87a4.74,4.74,0,0,0-4.68,4.8v5.12a4.68,4.68,0,1,0,9.35,0v-5.12a4.74,4.74,0,0,0-4.67-4.8Z" transform="translate(-47.67 -42.5)"/><path class="cls-1" d="M123.47,223.33c-3.71,0-6.89,4.81-3.36,8.27,4,4,11,6.42,18.57,6.42s14.47-2.46,18.6-6.42c3.46-3.46.28-8.27-3.43-8.27a4.61,4.61,0,0,0-3.24,1.42c-1.78,1.78-5.91,3.72-11.93,3.72s-10.22-1.94-11.9-3.72a4.73,4.73,0,0,0-3.31-1.42Z" transform="translate(-47.67 -42.5)"/><path class="cls-1" d="M100.4,158.6c-7,0-7,11.1,0,11.1h11.32c7,0,7-11.1,0-11.1Z" transform="translate(-47.67 -42.5)"/><path class="cls-1" d="M171.78,158.6c-7,0-7,11.1,0,11.1h11.27c7,0,7-11.1,0-11.1Z" transform="translate(-47.67 -42.5)"/></svg>