<svg id="Capa_1" data-name="Capa 1" xmlns="http://www.w3.org/2000/svg" viewBox="0 0 340.24 315"><defs><style>.cls-1{fill:#095d7e;}.cls-1,.cls-3,.cls-5,.cls-6,.cls-7,.cls-9{fill-rule:evenodd;}.cls-2{fill:#f2f2f2;}.cls-3,.cls-4,.cls-7,.cls-8{fill:none;}.cls-3,.cls-4{stroke:#150f80;stroke-width:10px;}.cls-3,.cls-4,.cls-7,.cls-8,.cls-9{stroke-miterlimit:10;}.cls-5{fill:#d57555;}.cls-6,.cls-9{fill:#32cc7c;}.cls-7,.cls-8,.cls-9{stroke:#095d7e;stroke-width:8px;}</style></defs><title>ico5</title><polygon class="cls-1" points="169.05 245.8 149.13 267.56 144.16 288.9 196.1 288.9 191.13 267.56 169.05 245.8 169.05 245.8 169.05 245.8"/><polygon class="cls-1" points="149.38 267.38 144.42 288.13 139.26 309.5 201 309.5 195.84 288.13 190.88 267.38 149.38 267.38 149.38 267.38"/><rect class="cls-2" x="8.14" y="22" width="324" height="243"/><path class="cls-3" d="M34.88,181.5V288A21.81,21.81,0,0,0,56.6,309.86H343.4A21.81,21.81,0,0,0,365.12,288V280.5" transform="translate(-29.88 -42.5)"/><polyline class="cls-3" points="152.14 265 134.14 310 206.14 310 188.14 265"/><line class="cls-4" x1="107.14" y1="310" x2="233.14" y2="310"/><polygon class="cls-5" points="153.98 211.2 260.78 211.2 260.78 240.58 153.98 240.58 153.98 211.2 153.98 211.2"/><polygon class="cls-6" points="65.76 33.82 94.18 33.82 94.18 240.58 65.76 240.58 65.76 33.82 65.76 33.82"/><polyline class="cls-7" points="26.14 238 98.14 238 314.14 238 17.14 238"/><line class="cls-8" x1="98.14" y1="4" x2="98.14" y2="238"/><polygon class="cls-9" points="44.14 4 206.14 4 206.14 31 188.14 31 44.14 31 44.14 4"/><polyline class="cls-7" points="188.14 31 188.14 85 228.64 125.5"/><line class="cls-8" x1="143.14" y1="130" x2="188.14" y2="85"/><polygon class="cls-5" points="134.38 123 238.22 123 238.22 153.36 134.38 153.36 134.38 123 134.38 123"/></svg>