<svg id="Capa_1" data-name="Capa 1" xmlns="http://www.w3.org/2000/svg" viewBox="0 0 340.24 329.61"><defs><style>.cls-1,.cls-9{fill:#095d7e;}.cls-1,.cls-3,.cls-5,.cls-6,.cls-7,.cls-8{fill-rule:evenodd;}.cls-2{fill:#f2f2f2;}.cls-3,.cls-4{fill:none;stroke-width:10px;}.cls-3,.cls-4,.cls-9{stroke:#150f80;stroke-miterlimit:10;}.cls-5{fill:#00cfbe;}.cls-6{fill:#41805e;}.cls-7{fill:#32cc7c;}.cls-8{fill:#150f80;}.cls-9{stroke-width:3px;}</style></defs><title>ico6</title><polygon class="cls-1" points="169.05 260.41 149.13 282.17 144.16 303.5 196.1 303.5 191.13 282.17 169.05 260.41 169.05 260.41 169.05 260.41"/><polygon class="cls-1" points="149.38 281.99 144.42 302.74 139.26 324.11 201 324.11 195.84 302.74 190.88 281.99 149.38 281.99 149.38 281.99"/><rect class="cls-2" x="8.14" y="36.61" width="324" height="243"/><path class="cls-3" d="M34.88,188.8V295.29A21.8,21.8,0,0,0,56.6,317.16H343.4a21.8,21.8,0,0,0,21.72-21.87V287.8" transform="translate(-29.88 -35.2)"/><polyline class="cls-3" points="152.14 279.61 134.14 324.61 206.14 324.61 188.14 279.61"/><line class="cls-4" x1="107.14" y1="324.61" x2="233.14" y2="324.61"/><path class="cls-5" d="M127.62,215.45a21.6,21.6,0,0,1,6.36,1.09,18.26,18.26,0,0,1-6.36,35.33,14.1,14.1,0,0,1-3.56-.47,18,18,0,0,1-14.71-17.82,18.27,18.27,0,0,1,18.27-18.13Zm-7.43-35.65-.31,5.58-.63,7.61a40.54,40.54,0,0,0-13.93,5.89L95.4,190l-7.29,7.27-3.87,3.88,8.68,9.91a43.87,43.87,0,0,0-5.73,14L74,226v15.65l13.17.92a42.32,42.32,0,0,0,5.73,13.95l-8.68,9.91,9.3,9.3,1.86,1.85,9.92-8.66a40.07,40.07,0,0,0,12.7,5.42,3,3,0,0,0,1.23.31l.94,13.16h15l.94-13a41.13,41.13,0,0,0,14.1-5.89l8.22,7.12,1.86,1.54,11.31-11-8.85-9.92a40.56,40.56,0,0,0,5.89-14l13.34-.92V226l-13.18-.94a44.1,44.1,0,0,0-5.73-14l8.68-9.91L160.62,190l-9.91,8.84a34,34,0,0,0-10.22-4.82,31.52,31.52,0,0,0-3.71-1.07l-.94-13.19Z" transform="translate(-29.88 -35.2)"/><path class="cls-6" d="M271.53,183.25a1,1,0,0,0,.47-.14,8.17,8.17,0,0,0,3.68-4l23.19-53.56c9.36-21.67-5.86-46.27-29.29-46.87H267.4c-.6,0-1.2,0-1.81,0-23,1.16-37.62,25.45-28.38,46.7l23.25,53.68a8.1,8.1,0,0,0,3.62,4,.82.82,0,0,0,.45.12,1,1,0,0,0,1-.91V126.94a13.18,13.18,0,1,1,5.18,0v55.38a.86.86,0,0,0,.87.93Z" transform="translate(-29.88 -35.2)"/><path class="cls-7" d="M295.71,70.54V38.12a2.88,2.88,0,0,0-2.91-2.92H243.34a2.87,2.87,0,0,0-2.85,2.92V70.54Z" transform="translate(-29.88 -35.2)"/><path class="cls-8" d="M299,83.07a6.2,6.2,0,0,0,6.28-6.17v-9A6.26,6.26,0,0,0,299,61.71H237.13a6.24,6.24,0,0,0-6.21,6.22v9a6.18,6.18,0,0,0,6.21,6.17Z" transform="translate(-29.88 -35.2)"/><line class="cls-9" x1="233.08" y1="163.47" x2="170.97" y2="163.47"/><line class="cls-9" x1="243.43" y1="163.47" x2="305.54" y2="163.47"/><path class="cls-8" d="M274.22,206.8a2.37,2.37,0,0,0,2.35-2.44v-13.5a2.36,2.36,0,0,0-2.35-2.44h-13a2.37,2.37,0,0,0-2.37,2.44v13.5a2.37,2.37,0,0,0,2.37,2.44Z" transform="translate(-29.88 -35.2)"/><path class="cls-7" d="M334,206.8a9.2,9.2,0,1,0-8.83-9.23A9,9,0,0,0,334,206.8Z" transform="translate(-29.88 -35.2)"/><path class="cls-7" d="M202.18,206.8a9.2,9.2,0,1,0-8.84-9.23,9.05,9.05,0,0,0,8.84,9.23Z" transform="translate(-29.88 -35.2)"/></svg>