<svg id="Capa_1" data-name="Capa 1" xmlns="http://www.w3.org/2000/svg" viewBox="0 0 273.91 290.09"><defs><style>.cls-1{fill:#095d7e;}.cls-1,.cls-2,.cls-3,.cls-4{fill-rule:evenodd;}.cls-2{fill:#32cc7c;}.cls-3{fill:#f2f2f2;}.cls-4{fill:#150f80;}</style></defs><title>ico7</title><polygon class="cls-1" points="273.91 75.97 136.98 152.22 136.98 290.09 273.91 213.73 273.91 75.97 273.91 75.97 273.91 75.97"/><polygon class="cls-2" points="223.28 190.51 136.98 238.86 136.98 290.1 273.91 213.33 223.28 190.51 223.28 190.51 223.28 190.51"/><polygon class="cls-2" points="0 75.97 0 213.73 136.95 290.09 136.95 152.22 0 75.97 0 75.97 0 75.97"/><polygon class="cls-3" points="0 75.97 0 214.15 51.05 191.38 51.05 104.22 0 75.97 0 75.97 0 75.97"/><polygon class="cls-3" points="136.91 0 0 76.01 136.91 151.9 273.91 76.01 136.91 0 136.91 0 136.91 0"/><polygon class="cls-1" points="136.98 0 136.98 56.48 223.28 104.58 273.91 76.41 136.98 0 136.98 0 136.98 0"/><polygon class="cls-3" points="224.11 104.61 136.98 152.5 136.98 239.05 224.11 191.15 224.11 104.61 224.11 104.61 224.11 104.61"/><polygon class="cls-1" points="51.07 104.61 51.07 191.15 136.95 239.05 136.95 152.5 51.07 104.61 51.07 104.61 51.07 104.61"/><polygon class="cls-4" points="65.31 145.41 65.31 176.72 96.39 194.05 96.39 162.74 65.31 145.41 65.31 145.41 65.31 145.41"/><polygon class="cls-2" points="137.53 57.27 51.07 104.58 137.53 151.9 224.11 104.58 137.53 57.27 137.53 57.27 137.53 57.27"/></svg>