<svg id="Capa_1" data-name="Capa 1" xmlns="http://www.w3.org/2000/svg" viewBox="0 0 342 300.36"><defs><style>.cls-1{fill:#095d7e;}.cls-1,.cls-3{fill-rule:evenodd;}.cls-2{fill:#f2f2f2;}.cls-3,.cls-4{fill:none;stroke:#150f80;stroke-miterlimit:10;stroke-width:10px;}.cls-5{fill:#150f80;}.cls-6{fill:#32cc7c;}.cls-7{fill:#41805e;}</style></defs><title>ico8</title><polygon class="cls-1" points="169.91 231.16 149.99 252.92 145.02 274.25 196.96 274.25 191.99 252.92 169.91 231.16 169.91 231.16 169.91 231.16"/><polygon class="cls-1" points="150.24 252.74 145.28 273.49 140.12 294.86 201.86 294.86 196.7 273.49 191.74 252.74 150.24 252.74 150.24 252.74"/><rect class="cls-2" x="9" y="7.36" width="324" height="243"/><path class="cls-3" d="M34.86,174.18V280.66a21.8,21.8,0,0,0,21.72,21.88h286.8a21.81,21.81,0,0,0,21.72-21.88v-7.48" transform="translate(-29 -49.82)"/><polyline class="cls-3" points="153 250.36 135 295.36 207 295.36 189 250.36"/><line class="cls-4" x1="108" y1="295.36" x2="234" y2="295.36"/><path class="cls-3" d="M34.86,84.18V76.7A21.8,21.8,0,0,1,56.58,54.82h286.8A21.81,21.81,0,0,1,365.1,76.7v7.48" transform="translate(-29 -49.82)"/><line class="cls-4" x1="342" y1="223.36" x2="9" y2="223.36"/><line class="cls-4" x1="342" y1="34.36" y2="34.36"/><rect class="cls-5" x="27" y="232.36" width="9" height="9"/><rect class="cls-5" x="63" y="232.36" width="9" height="9"/><rect class="cls-5" x="99" y="232.36" width="9" height="9"/><rect class="cls-5" x="135" y="232.36" width="9" height="9"/><rect class="cls-5" x="171" y="232.36" width="9" height="9"/><rect class="cls-5" x="207" y="232.36" width="9" height="9"/><rect class="cls-5" x="243" y="232.36" width="9" height="9"/><rect class="cls-5" x="279" y="232.36" width="9" height="9"/><rect class="cls-5" x="315" y="232.36" width="9" height="9"/><rect class="cls-5" x="27" y="16.36" width="9" height="9"/><rect class="cls-5" x="63" y="16.36" width="9" height="9"/><rect class="cls-5" x="99" y="16.36" width="9" height="9"/><rect class="cls-5" x="135" y="16.36" width="9" height="9"/><rect class="cls-5" x="171" y="16.36" width="9" height="9"/><rect class="cls-5" x="207" y="16.36" width="9" height="9"/><rect class="cls-5" x="243" y="16.36" width="9" height="9"/><rect class="cls-5" x="279" y="16.36" width="9" height="9"/><rect class="cls-5" x="315" y="16.36" width="9" height="9"/><circle class="cls-6" cx="225" cy="115.36" r="36"/><path class="cls-7" d="M83,129.18l.73,0,.62,0,1.15.1c.75.08,1.5.16,2.22.26,1.47.19,2.9.42,4.32.69,2.84.52,5.63,1.15,8.38,1.93a96.9,96.9,0,0,1,16,5.92,92.56,92.56,0,0,1,14.7,8.7,85.16,85.16,0,0,1,12.65,11.41c1.94,2.06,3.65,4.32,5.38,6.54l2.41,3.48a20.4,20.4,0,0,1,1.13,1.77l1.08,1.8c1.51,2.37,2.66,4.92,3.95,7.38l1.64,3.83.81,1.91.69,2a116.75,116.75,0,0,1,6.49,31.87l-6.71-.29c.24-1,.48-1.7.74-2.53s.54-1.59.83-2.37c.58-1.57,1.22-3.1,1.9-4.61a73.15,73.15,0,0,1,4.7-8.72,60.58,60.58,0,0,1,13-14.79,54.54,54.54,0,0,1,8.17-5.41,55.64,55.64,0,0,1,9-3.69,59,59,0,0,1,19-2.21A57.94,57.94,0,0,0,199.55,178a53,53,0,0,0-8.27,4.28,52.28,52.28,0,0,0-7.22,5.76,56.43,56.43,0,0,0-10.8,14.78,66.19,66.19,0,0,0-3.61,8.4c-.5,1.44-1,2.89-1.35,4.35-.2.73-.39,1.46-.55,2.18s-.33,1.5-.42,2.1l-3.27,21.49-3.44-21.79a108.35,108.35,0,0,0-8.59-29l-.78-1.69-.88-1.64L148.62,184c-1.35-2.06-2.54-4.22-4-6.15l-1.08-1.48a14.13,14.13,0,0,0-1.11-1.44l-2.33-2.81c-1.67-1.76-3.28-3.56-5.1-5.16a71.94,71.94,0,0,0-11.49-8.64,77.56,77.56,0,0,0-13-6.16,80.33,80.33,0,0,0-13.85-3.75c-2.34-.44-4.71-.76-7.06-1-1.17-.12-2.34-.19-3.49-.24-.58,0-1.14,0-1.7,0H83Z" transform="translate(-29 -49.82)"/></svg>