<svg id="Capa_1" data-name="Capa 1" xmlns="http://www.w3.org/2000/svg" viewBox="0 0 340.24 293"><defs><style>.cls-1{fill:#095d7e;}.cls-1,.cls-3,.cls-5{fill-rule:evenodd;}.cls-2{fill:#f2f2f2;}.cls-3,.cls-4{fill:none;stroke:#150f80;stroke-miterlimit:10;stroke-width:10px;}.cls-5{fill:#150f80;}</style></defs><title>ico2</title><polygon class="cls-1" points="169.05 223.8 149.13 245.56 144.16 266.9 196.1 266.9 191.13 245.56 169.05 223.8 169.05 223.8 169.05 223.8"/><polygon class="cls-1" points="149.38 245.38 144.42 266.13 139.26 287.5 201 287.5 195.84 266.13 190.88 245.38 149.38 245.38 149.38 245.38"/><rect class="cls-2" x="8.14" width="324" height="243"/><path class="cls-3" d="M34.88,173V279.48A21.81,21.81,0,0,0,56.6,301.36H343.4a21.81,21.81,0,0,0,21.72-21.88V272" transform="translate(-29.88 -56)"/><polyline class="cls-3" points="152.14 243 134.14 288 206.14 288 188.14 243"/><line class="cls-4" x1="107.14" y1="288" x2="233.14" y2="288"/><path class="cls-5" d="M199.66,155.75a27.72,27.72,0,0,1,8.07,1.39A23.2,23.2,0,0,1,199.66,202a17.63,17.63,0,0,1-4.53-.6,22.86,22.86,0,0,1-18.68-22.63,23.22,23.22,0,0,1,23.21-23Zm-9.45-45.27-.39,7.08-.8,9.67a51.63,51.63,0,0,0-17.69,7.48l-12.6-11.23-9.26,9.24-4.92,4.92,11,12.6A55.73,55.73,0,0,0,148.3,168l-16.73,1.19V189l16.73,1.17a53.77,53.77,0,0,0,7.28,17.72l-11,12.59,11.82,11.81,2.36,2.36,12.6-11a50.88,50.88,0,0,0,16.13,6.88,3.66,3.66,0,0,0,1.56.4l1.19,16.72H209.3l1.19-16.52a52.14,52.14,0,0,0,17.91-7.48l10.44,9,2.36,2,14.36-14-11.23-12.59a52,52,0,0,0,7.48-17.72l16.94-1.17V169.14L252,168a56,56,0,0,0-7.28-17.71l11-12.6-14.19-14.16L229,134.71a43,43,0,0,0-13-6.11,37,37,0,0,0-4.72-1.37l-1.19-16.75Z" transform="translate(-29.88 -56)"/></svg>