<svg id="Capa_1" data-name="Capa 1" xmlns="http://www.w3.org/2000/svg" viewBox="0 0 340.24 293"><defs><style>.cls-1{fill:#095d7e;}.cls-1,.cls-3,.cls-5,.cls-6,.cls-7,.cls-8{fill-rule:evenodd;}.cls-2{fill:#f2f2f2;}.cls-3,.cls-4{fill:none;stroke:#150f80;stroke-miterlimit:10;stroke-width:10px;}.cls-5{fill:#150f80;}.cls-6{fill:#d57555;}.cls-7{fill:#41805e;}.cls-8{fill:#a6b8c7;}</style></defs><title>ico3</title><polygon class="cls-1" points="169.05 223.8 149.13 245.56 144.16 266.9 196.1 266.9 191.13 245.56 169.05 223.8 169.05 223.8 169.05 223.8"/><polygon class="cls-1" points="149.38 245.38 144.42 266.13 139.26 287.5 201 287.5 195.84 266.13 190.88 245.38 149.38 245.38 149.38 245.38"/><rect class="cls-2" x="8.14" width="324" height="243"/><path class="cls-3" d="M34.88,170.5V277A21.81,21.81,0,0,0,56.6,298.86H343.4A21.81,21.81,0,0,0,365.12,277V269.5" transform="translate(-29.88 -53.5)"/><polyline class="cls-3" points="152.14 243 134.14 288 206.14 288 188.14 243"/><line class="cls-4" x1="107.14" y1="288" x2="233.14" y2="288"/><path class="cls-5" d="M182.74,144.08l-17.82,1.51a98,98,0,0,0-61.73,29,3.31,3.31,0,0,0,2,5.62l38.48,3.44,39.05-39.61Z" transform="translate(-29.88 -53.5)"/><path class="cls-5" d="M225.35,187.44l-38.86,39.12,3.37,38.62a3.24,3.24,0,0,0,5.52,2,99.54,99.54,0,0,0,28.51-61.95l1.46-17.82Z" transform="translate(-29.88 -53.5)"/><path class="cls-6" d="M278.47,89.5a3.06,3.06,0,0,0-.73.1l-30.94,9L224,105.24a11.06,11.06,0,0,0-4.94,3L136,190.84a2.64,2.64,0,0,0,0,3.78l16.64,16.56,6.09,6.1,16.46,16.38a2.92,2.92,0,0,0,2.08.86,2.87,2.87,0,0,0,2.07-.86l46.49-46.33L262,151.41a13.1,13.1,0,0,0,3.31-5.5l15.63-53.14a2.56,2.56,0,0,0-2.45-3.27Z" transform="translate(-29.88 -53.5)"/><path class="cls-5" d="M223.86,130.61a15.33,15.33,0,1,0,14.95,15.33,15.14,15.14,0,0,0-14.95-15.33Z" transform="translate(-29.88 -53.5)"/><path class="cls-7" d="M141.39,199.38,132.75,208a3.94,3.94,0,0,0,0,5.66l11.82,11.72,11.81,11.72a4.06,4.06,0,0,0,2.83,1.15,4.12,4.12,0,0,0,2.86-1.15l8.69-8.62L159.16,217,153,210.85l-11.59-11.47Z" transform="translate(-29.88 -53.5)"/><path class="cls-1" d="M143.44,182.94,136,190.47a2.73,2.73,0,0,0,0,3.85L152.55,211l6.07,6.12L175,233.66a2.92,2.92,0,0,0,4.14,0l7.3-7.36L168,207.7l-6.08-6.15-18.48-18.61Z" transform="translate(-29.88 -53.5)"/><path class="cls-1" d="M277.76,89.5a2.71,2.71,0,0,0-.68.09L246.3,98.5l24.94,24.63,9-30.41a2.54,2.54,0,0,0-2.44-3.22Z" transform="translate(-29.88 -53.5)"/><path class="cls-8" d="M201.13,164.25a4,4,0,0,0-2.9,1.2L144,219.7a4.15,4.15,0,0,0,0,5.88l.27.27a4.19,4.19,0,0,0,5.83,0l54.23-54.26a4.24,4.24,0,0,0,0-5.88l-.27-.26a4.21,4.21,0,0,0-2.93-1.2Z" transform="translate(-29.88 -53.5)"/><path class="cls-5" d="M201.13,164.25a4,4,0,0,0-2.9,1.2L144,219.7a4.15,4.15,0,0,0,0,5.88l.27.27a4.19,4.19,0,0,0,5.83,0l54.23-54.26a4.24,4.24,0,0,0,0-5.88l-.27-.26a4.21,4.21,0,0,0-2.93-1.2Z" transform="translate(-29.88 -53.5)"/><path class="cls-5" d="M124.49,218.07a2.65,2.65,0,0,0-1.87.78l-9,8.89a2.64,2.64,0,1,0,3.76,3.72l9-8.9a2.6,2.6,0,0,0,0-3.71,2.69,2.69,0,0,0-1.88-.78Z" transform="translate(-29.88 -53.5)"/><path class="cls-5" d="M151.31,245a2.53,2.53,0,0,0-1.84.82l-8.93,8.86a2.64,2.64,0,0,0,1.88,4.51,2.51,2.51,0,0,0,1.82-.81l9-8.9a2.63,2.63,0,0,0-1.89-4.48Z" transform="translate(-29.88 -53.5)"/><path class="cls-5" d="M142.43,236a2.68,2.68,0,0,0-1.88.77l-9,8.89a2.66,2.66,0,0,0,1.92,4.53,2.59,2.59,0,0,0,1.84-.81l9-8.89a2.63,2.63,0,0,0,0-3.72,2.68,2.68,0,0,0-1.88-.77Z" transform="translate(-29.88 -53.5)"/></svg>