<svg id="Capa_1" data-name="Capa 1" xmlns="http://www.w3.org/2000/svg" viewBox="0 0 340.24 293"><defs><style>.cls-1{fill:#095d7e;}.cls-1,.cls-3,.cls-5,.cls-6,.cls-7{fill-rule:evenodd;}.cls-2{fill:#f2f2f2;}.cls-3,.cls-4{fill:none;stroke:#150f80;stroke-miterlimit:10;stroke-width:10px;}.cls-5{fill:#32cc7c;}.cls-6{fill:#d57555;}.cls-7{fill:#41805e;}</style></defs><title>ico4</title><polygon class="cls-1" points="169.05 223.8 149.13 245.56 144.16 266.9 196.1 266.9 191.13 245.56 169.05 223.8 169.05 223.8 169.05 223.8"/><polygon class="cls-1" points="149.38 245.38 144.42 266.13 139.26 287.5 201 287.5 195.84 266.13 190.88 245.38 149.38 245.38 149.38 245.38"/><rect class="cls-2" x="8.14" width="324" height="243"/><path class="cls-3" d="M34.88,170.5V277A21.81,21.81,0,0,0,56.6,298.86H343.4A21.81,21.81,0,0,0,365.12,277V269.5" transform="translate(-29.88 -53.5)"/><polyline class="cls-3" points="152.14 243 134.14 288 206.14 288 188.14 243"/><line class="cls-4" x1="107.14" y1="288" x2="233.14" y2="288"/><polygon class="cls-1" points="32.48 53.53 92.21 53.53 92.21 113.28 32.48 113.28 32.48 53.53 32.48 53.53"/><polygon class="cls-5" points="32.48 133.88 92.21 133.88 92.21 192.66 32.48 192.66 32.48 133.88 32.48 133.88"/><polygon class="cls-6" points="198.07 53.53 308.78 53.53 308.78 113.28 198.07 113.28 198.07 53.53 198.07 53.53"/><polygon class="cls-7" points="198.07 133.88 308.78 133.88 308.78 192.66 198.07 192.66 198.07 133.88 198.07 133.88"/><polygon class="cls-1" points="115.75 133.88 175.53 133.88 175.53 192.66 115.75 192.66 115.75 133.88 115.75 133.88"/><polygon class="cls-5" points="115.75 53.53 115.75 73.11 115.75 113.28 175.53 113.28 175.53 53.53 115.75 53.53 115.75 53.53"/></svg>