<svg id="Capa_1" data-name="Capa 1" xmlns="http://www.w3.org/2000/svg" viewBox="0 0 340.24 293"><defs><style>.cls-1{fill:#095d7e;}.cls-1,.cls-3,.cls-5,.cls-6,.cls-7,.cls-8{fill-rule:evenodd;}.cls-2{fill:#f2f2f2;}.cls-3,.cls-4,.cls-8{fill:none;stroke-miterlimit:10;}.cls-3,.cls-4{stroke:#150f80;stroke-width:10px;}.cls-5{fill:#32cc7c;}.cls-6{fill:#d57555;}.cls-7{fill:#150f80;}.cls-8{stroke:#d57555;stroke-width:8px;}</style></defs><title>ico9</title><polygon class="cls-1" points="169.05 223.8 149.13 245.56 144.16 266.9 196.1 266.9 191.13 245.56 169.05 223.8 169.05 223.8 169.05 223.8"/><polygon class="cls-1" points="149.38 245.38 144.42 266.13 139.26 287.5 201 287.5 195.84 266.13 190.88 245.38 149.38 245.38 149.38 245.38"/><rect class="cls-2" x="8.14" width="324" height="243"/><path class="cls-3" d="M34.88,170.5V277A21.81,21.81,0,0,0,56.6,298.86H343.4A21.81,21.81,0,0,0,365.12,277V269.5" transform="translate(-29.88 -53.5)"/><polyline class="cls-3" points="152.14 243 134.14 288 206.14 288 188.14 243"/><line class="cls-4" x1="107.14" y1="288" x2="233.14" y2="288"/><polygon class="cls-1" points="238.1 82.18 169.79 120.22 169.79 189 238.1 150.91 238.1 82.18 238.1 82.18 238.1 82.18"/><polygon class="cls-5" points="212.85 139.32 169.79 163.44 169.79 189 238.1 150.71 212.85 139.32 212.85 139.32 212.85 139.32"/><polygon class="cls-5" points="101.46 82.18 101.46 150.91 169.78 189 169.78 120.22 101.46 82.18 101.46 82.18 101.46 82.18"/><polygon class="cls-6" points="101.46 82.18 101.46 151.11 126.93 139.75 126.93 96.27 101.46 82.18 101.46 82.18 101.46 82.18"/><polygon class="cls-6" points="169.76 44.28 101.46 82.2 169.76 120.06 238.1 82.2 169.76 44.28 169.76 44.28 169.76 44.28"/><polygon class="cls-1" points="169.79 44.28 169.79 72.46 212.85 96.46 238.1 82.4 169.79 44.28 169.79 44.28 169.79 44.28"/><polygon class="cls-6" points="213.26 96.47 169.79 120.36 169.79 163.53 213.26 139.64 213.26 96.47 213.26 96.47 213.26 96.47"/><polygon class="cls-1" points="126.94 96.47 126.94 139.64 169.78 163.53 169.78 120.36 126.94 96.47 126.94 96.47 126.94 96.47"/><polygon class="cls-7" points="134.04 116.82 134.04 132.44 149.55 141.09 149.55 125.47 134.04 116.82 134.04 116.82 134.04 116.82"/><polygon class="cls-5" points="170.07 72.85 126.94 96.46 170.07 120.06 213.26 96.46 170.07 72.85 170.07 72.85 170.07 72.85"/><polyline class="cls-8" points="296.14 180 296.14 198 278.14 198"/><polyline class="cls-8" points="278.14 36 296.14 36 296.14 54"/><polyline class="cls-8" points="44.14 54 44.14 36 62.14 36"/><polyline class="cls-8" points="62.14 198 44.14 198 44.14 180"/></svg>