<?xml version="1.0" standalone="no"?><!-- Generator: Gravit.io --><svg xmlns="http://www.w3.org/2000/svg" xmlns:xlink="http://www.w3.org/1999/xlink" style="isolation:isolate" viewBox="0 0 91 91" width="91" height="91"><defs><clipPath id="_clipPath_H2npIYKsfv6wTswXMLPTBTtiLKaKPfcE"><rect width="91" height="91"/></clipPath></defs><g clip-path="url(#_clipPath_H2npIYKsfv6wTswXMLPTBTtiLKaKPfcE)"><g id="3592821-garbage-can-general-office-recycle-bin-rubbish-bin-trash-bin-trash-can_107760"><g id="Group"><path d=" M 19.418 85.5 L 66.056 85.5 C 69.107 85.5 71.587 83.019 71.587 79.97 L 71.587 30.967 L 19.418 30.965 L 19.418 85.5 Z  M 57.166 42.732 C 57.166 41.352 58.286 40.232 59.666 40.232 C 61.047 40.232 62.168 41.352 62.168 42.732 L 62.168 76.023 C 62.168 77.406 61.047 78.523 59.666 78.523 C 58.286 78.523 57.166 77.406 57.166 76.023 L 57.166 42.732 M 42.999 42.732 C 42.999 41.352 44.119 40.232 45.501 40.232 C 46.88 40.232 48 41.352 48 42.732 L 48 76.023 C 48 77.406 46.88 78.523 45.501 78.523 C 44.119 78.523 42.999 77.406 42.999 76.023 L 42.999 42.732 M 28.832 42.732 C 28.832 41.352 29.953 40.232 31.332 40.232 C 32.713 40.232 33.834 41.352 33.834 42.732 L 33.834 76.023 C 33.834 77.406 32.713 78.523 31.332 78.523 C 29.953 78.523 28.832 77.406 28.832 76.023 L 28.832 42.732 M 57.166 42.732 Z " fill-rule="evenodd" fill="rgb(255,255,255)"/><rect x="15.771" y="17.541" width="59.459" height="8.425" transform="matrix(1,0,0,1,0,0)" fill="rgb(255,255,255)"/><rect x="37.375" y="5.5" width="16.25" height="7.04" transform="matrix(1,0,0,1,0,0)" fill="rgb(255,255,255)"/></g></g></g></svg>