<?xml version="1.0" standalone="no"?><!-- Generator: Gravit.io --><svg xmlns="http://www.w3.org/2000/svg" xmlns:xlink="http://www.w3.org/1999/xlink" style="isolation:isolate" viewBox="0 0 91 91" width="91" height="91"><defs><clipPath id="_clipPath_c9Rb0s1im0eWa90bYk5gtyj5n1oxFXUq"><rect width="91" height="91"/></clipPath></defs><g clip-path="url(#_clipPath_c9Rb0s1im0eWa90bYk5gtyj5n1oxFXUq)"><clipPath id="_clipPath_sScPaP0Lzn3GrcGgGKVup9THpjkvX2z4"><rect x="0" y="0" width="91" height="91" transform="matrix(1,0,0,1,0,0)" fill="rgb(255,255,255)"/></clipPath><g clip-path="url(#_clipPath_sScPaP0Lzn3GrcGgGKVup9THpjkvX2z4)"><g id="Group"><g id="form"><g id="Group" style="opacity:0.2;"><g opacity="0.2"><path d=" M 18.049 7.069 C 15.876 7.069 14.127 8.818 14.127 10.99 L 14.127 81.578 C 14.127 83.751 15.876 85.5 18.049 85.5 L 72.951 85.5 C 75.124 85.5 76.873 83.751 76.873 81.578 L 76.873 30.598 L 55.304 28.637 L 53.343 7.069 L 18.049 7.069 L 18.049 7.069 Z " fill="rgb(0,0,0)"/></g></g><g id="Group" style="opacity:0.2;"><g opacity="0.2"><path d=" M 53.343 7.069 L 53.343 26.676 C 53.343 28.842 55.099 30.598 57.265 30.598 L 76.873 30.598 L 53.343 7.069 L 53.343 7.069 Z " fill="rgb(255,255,255)"/></g></g><path d=" M 53.343 5.5 L 53.343 25.108 C 53.343 27.274 55.098 29.029 57.265 29.029 L 76.873 29.029 L 53.343 5.5 L 53.343 5.5 Z " fill="rgb(232,232,232)"/><g id="Group" style="opacity:0.2;"><g opacity="0.2"><path d=" M 26.676 43.147 L 26.676 47.853 L 31.382 47.853 L 31.382 43.147 L 26.676 43.147 L 26.676 43.147 Z  M 34.52 43.147 L 34.52 47.853 L 64.324 47.853 L 64.324 43.147 L 34.52 43.147 L 34.52 43.147 Z  M 26.676 50.99 L 26.676 55.696 L 31.382 55.696 L 31.382 50.99 L 26.676 50.99 L 26.676 50.99 Z  M 34.52 50.99 L 34.52 55.696 L 64.324 55.696 L 64.324 50.99 L 34.52 50.99 L 34.52 50.99 Z  M 26.676 58.833 L 26.676 63.539 L 31.382 63.539 L 31.382 58.833 L 26.676 58.833 L 26.676 58.833 Z  M 34.52 58.833 L 34.52 63.539 L 64.324 63.539 L 64.324 58.833 L 34.52 58.833 L 34.52 58.833 Z  M 26.676 66.676 L 26.676 71.382 L 31.382 71.382 L 31.382 66.676 L 26.676 66.676 L 26.676 66.676 Z  M 34.52 66.676 L 34.52 71.382 L 64.324 71.382 L 64.324 66.676 L 34.52 66.676 L 34.52 66.676 Z " fill="rgb(0,0,0)"/></g></g><path d=" M 18.049 5.5 C 15.876 5.5 14.127 7.249 14.127 9.422 L 14.127 80.01 C 14.127 82.182 15.876 83.931 18.049 83.931 L 72.951 83.931 C 75.124 83.931 76.873 82.182 76.873 80.01 L 76.873 29.029 L 55.304 27.069 L 53.343 5.5 L 18.049 5.5 Z  M 26.676 41.578 L 26.676 46.284 L 31.382 46.284 L 31.382 41.578 L 26.676 41.578 M 34.52 41.578 L 34.52 46.284 L 64.324 46.284 L 64.324 41.578 L 34.52 41.578 M 26.676 49.422 L 26.676 54.127 L 31.382 54.127 L 31.382 49.422 L 26.676 49.422 M 34.52 49.422 L 34.52 54.127 L 64.324 54.127 L 64.324 49.422 L 34.52 49.422 M 26.676 57.265 L 26.676 61.971 L 31.382 61.971 L 31.382 57.265 L 26.676 57.265 M 34.52 57.265 L 34.52 61.971 L 64.324 61.971 L 64.324 57.265 L 34.52 57.265 M 26.676 65.108 L 26.676 69.814 L 31.382 69.814 L 31.382 65.108 L 26.676 65.108 M 34.52 65.108 L 34.52 69.814 L 64.324 69.814 L 64.324 65.108 L 34.52 65.108 M 26.676 41.578 Z " fill-rule="evenodd" fill="rgb(255,255,255)"/><g id="Group" style="opacity:0.2;"><g opacity="0.2"><path d=" M 18.049 5.5 C 15.876 5.5 14.127 7.249 14.127 9.422 L 14.127 10.99 C 14.127 8.818 15.876 7.069 18.049 7.069 L 53.343 7.069 C 53.343 5.5 53.343 7.069 53.343 5.5 L 18.049 5.5 L 18.049 5.5 Z " fill="rgb(255,255,255)"/></g></g></g></g></g></g></svg>