<svg id="AgregarPregunta" xmlns="http://www.w3.org/2000/svg" viewBox="0 0 71.09 77.28"><defs><style>.cls-1{fill:#fff;}.cls-2{fill:none;stroke:#fff;stroke-miterlimit:10;}</style></defs><title>Pregunta</title><g id="Pregunta"><path id="Bolita" class="cls-1" d="M50.45,31.05c-.21,6.28-4.19,8.38-8.07,10.48h.11C35.88,44.88,29.8,47.71,29.8,57.15v8.59H40a19.5,19.5,0,0,1,.38-6.93l0-1.56a4.35,4.35,0,0,1,1.83-3.39A20.56,20.56,0,0,1,57.93,43c2.14-2.79,3.61-6.48,3.74-11.71C61.88,18.78,52,7.14,35,7.14c-11.95,0-20.12,7.55-24.63,17.2L19,29.26c3.36-6.92,8.81-11.21,16-11.21C45.11,18.05,50.66,24.44,50.45,31.05Z" transform="translate(-10.41 -7.14)"/><path id="Signo" class="cls-1" d="M35,68.89a6.59,6.59,0,0,0-6.6,6.92,6.76,6.76,0,0,0,13.52,0A6.6,6.6,0,0,0,35,68.89Z" transform="translate(-10.41 -7.14)"/></g><circle id="Circulo" class="cls-2" cx="50.03" cy="56.22" r="20.56"/><path id="Cruz" class="cls-1" d="M62.1,49.84V62H73.8v3.11H62.1V77.39H58.79V65.11H47.08V62H58.79V49.84Z" transform="translate(-10.41 -7.14)"/></svg>