<?xml version="1.0" standalone="no"?><!-- Generator: Gravit.io --><svg xmlns="http://www.w3.org/2000/svg" xmlns:xlink="http://www.w3.org/1999/xlink" style="isolation:isolate" viewBox="0 0 91 91" width="91" height="91"><defs><clipPath id="_clipPath_jegKqDa9cA2yMCnHjiP3Ady6UYP624rg"><rect width="91" height="91"/></clipPath></defs><g clip-path="url(#_clipPath_jegKqDa9cA2yMCnHjiP3Ady6UYP624rg)"><g id="reload-2_icon-icons.com_69598"><path d=" M 79.875 70.5 L 76.75 70.5 C 76.438 70.5 76.125 70.5 75.813 70.188 C 75.188 69.563 74.875 68.625 75.5 68 C 80.5 61.75 83 53.938 83 45.5 C 83 28.313 71.438 13.938 55.813 9.563 C 53.938 8.938 51.75 10.5 51.75 12.688 L 51.75 19.25 C 51.75 20.5 52.375 21.75 53.625 22.063 C 63.312 25.5 70.5 34.875 70.5 45.5 C 70.5 49.875 69.25 54.25 67.063 58 C 66.75 58.313 66.438 58.625 65.813 58.625 C 64.875 58.625 64.25 58 64.25 57.063 L 64.25 54.875 C 64.25 53 63 51.75 61.125 51.75 L 54.875 51.75 C 53 51.75 51.75 53 51.75 54.875 L 51.75 79.875 C 51.75 81.75 53 83 54.875 83 L 79.875 83 C 81.75 83 83 81.75 83 79.875 L 83 73.625 C 83 71.75 81.75 70.5 79.875 70.5 Z " fill="rgb(255,255,255)"/><path d=" M 36.125 8 L 11.125 8 C 9.25 8 8 9.25 8 11.125 L 8 17.375 C 8 19.25 9.25 20.5 11.125 20.5 L 14.25 20.5 C 14.563 20.5 14.875 20.5 15.188 20.813 C 15.813 21.438 16.125 22.375 15.5 23 L 15.5 23 C 10.5 29.25 8 37.063 8 45.5 C 8 62.688 19.563 77.063 35.188 81.438 C 37.063 82.063 39.25 80.5 39.25 78.313 L 39.25 71.75 C 39.25 70.5 38.625 69.25 37.375 68.938 C 27.688 65.5 20.5 56.125 20.5 45.5 C 20.5 41.125 21.75 36.75 23.938 33 C 24.25 32.688 24.563 32.375 25.188 32.375 C 26.125 32.375 26.75 33 26.75 33.938 L 26.75 36.125 C 26.75 38 28 39.25 29.875 39.25 L 36.125 39.25 C 38 39.25 39.25 38 39.25 36.125 L 39.25 11.125 C 39.25 9.25 38 8 36.125 8 Z " fill="rgb(255,255,255)"/></g></g></svg>