<svg id="AgregarIndicacion" xmlns="http://www.w3.org/2000/svg" viewBox="0 0 64.56 79.42"><defs><style>.cls-1{fill:none;stroke:#fff;stroke-miterlimit:10;}.cls-2{fill:#fff;}</style></defs><title>Indicador</title><circle id="Circulo" class="cls-1" cx="43.5" cy="58.36" r="20.56"/><path id="Cruz" class="cls-2" d="M60.1,50.84V63H71.8v3.11H60.1V78.39H56.79V66.11H45.08V63H56.79V50.84Z" transform="translate(-14.94 -6)"/><path id="Indicador" class="cls-2" d="M37.88,64.36A20.56,20.56,0,0,1,51.27,45.11l2.89-5a22,22,0,0,0,2-3.46l.1-.18h0a21.61,21.61,0,1,0-41.31-8.88,21.42,21.42,0,0,0,1.93,8.88h0l.11.21a22.52,22.52,0,0,0,1.48,2.68l17.6,32,2.14-3.68A20.21,20.21,0,0,1,37.88,64.36ZM21.56,27.5a15,15,0,1,1,15,15A15,15,0,0,1,21.56,27.5Z" transform="translate(-14.94 -6)"/></svg>