<?xml version="1.0" standalone="no"?><!-- Generator: Gravit.io --><svg xmlns="http://www.w3.org/2000/svg" xmlns:xlink="http://www.w3.org/1999/xlink" style="isolation:isolate" viewBox="0 0 128 128" width="128" height="128"><defs><clipPath id="_clipPath_QN2ZmgumvMhEky3fGckOI8Jpt9x1tcHs"><rect width="128" height="128"/></clipPath></defs><g clip-path="url(#_clipPath_QN2ZmgumvMhEky3fGckOI8Jpt9x1tcHs)"><g id="briefcase_icon_131029"><g id="Icons"><g id="Briefcase"><rect x="0" y="0" width="128" height="128" transform="matrix(1,0,0,1,0,0)" fill="none"/><path d=" M 118.037 103.637 L 113.6 103.637 C 114.183 102.54 114.491 101.317 114.496 100.075 L 114.496 65.707 C 115.418 63.85 115.9 61.806 115.904 59.733 L 115.904 46.037 C 115.904 43.292 113.679 41.067 110.933 41.067 L 96 41.067 L 96 38.933 C 95.988 27.545 86.759 18.316 75.371 18.304 L 52.629 18.304 C 41.241 18.316 32.012 27.545 32 38.933 L 32 41.067 L 17.067 41.067 C 14.321 41.067 12.096 43.292 12.096 46.037 L 12.096 59.733 C 12.097 61.813 12.579 63.865 13.504 65.728 L 13.504 100.075 C 13.509 101.317 13.817 102.54 14.4 103.637 L 9.963 103.637 C 8.784 103.637 7.829 104.592 7.829 105.771 C 7.829 106.949 8.784 107.904 9.963 107.904 L 50.923 107.904 L 50.667 111.531 C 50.626 112.163 50.868 112.78 51.328 113.216 L 62.507 124.053 C 63.336 124.866 64.664 124.866 65.493 124.053 L 76.672 113.216 C 77.132 112.78 77.374 112.163 77.333 111.531 L 77.077 107.904 L 118.037 107.904 C 119.216 107.904 120.171 106.949 120.171 105.771 C 120.171 104.592 119.216 103.637 118.037 103.637 Z  M 36.267 38.933 C 36.278 29.901 43.597 22.582 52.629 22.571 L 75.371 22.571 C 84.403 22.582 91.722 29.901 91.733 38.933 L 91.733 41.067 L 87.467 41.067 L 87.467 38.933 C 87.467 35.725 86.192 32.649 83.924 30.38 C 81.655 28.112 78.579 26.837 75.371 26.837 L 52.629 26.837 C 49.421 26.837 46.345 28.112 44.076 30.38 C 41.808 32.649 40.533 35.725 40.533 38.933 L 40.533 41.067 L 36.267 41.067 L 36.267 38.933 Z  M 83.2 38.933 L 83.2 41.067 L 79.104 41.067 C 78.861 40.414 78.507 39.808 78.059 39.275 C 76.847 37.845 75.069 37.019 73.195 37.013 L 54.805 37.013 C 52.931 37.019 51.153 37.845 49.941 39.275 C 49.493 39.808 49.139 40.414 48.896 41.067 L 44.8 41.067 L 44.8 38.933 C 44.8 36.857 45.625 34.865 47.093 33.397 C 48.561 31.929 50.553 31.104 52.629 31.104 L 75.371 31.104 C 77.447 31.104 79.439 31.929 80.907 33.397 C 82.375 34.865 83.2 36.857 83.2 38.933 Z  M 51.2 103.637 L 21.333 103.637 C 20.388 103.637 19.482 103.262 18.814 102.594 C 18.146 101.926 17.771 101.02 17.771 100.075 L 17.771 70.699 C 20.053 72.335 22.791 73.216 25.6 73.216 L 27.733 73.216 L 27.733 75.904 C 27.582 78.795 29.039 81.533 31.52 83.024 C 34.001 84.515 37.103 84.515 39.584 83.024 C 42.065 81.533 43.522 78.795 43.371 75.904 L 43.371 73.216 L 53.333 73.216 L 51.2 103.637 Z  M 32 75.904 L 32 69.504 L 39.104 69.504 L 39.104 75.904 C 39.208 77.239 38.554 78.519 37.412 79.218 C 36.271 79.917 34.833 79.917 33.692 79.218 C 32.55 78.519 31.896 77.239 32 75.904 Z  M 53.547 68.949 L 43.371 68.949 L 43.371 68.8 C 43.376 67.857 43.006 66.951 42.341 66.282 C 41.676 65.613 40.772 65.237 39.829 65.237 L 31.296 65.237 C 29.328 65.237 27.733 66.832 27.733 68.8 L 27.733 68.949 L 25.6 68.949 C 20.507 68.949 16.374 64.827 16.363 59.733 L 16.363 46.037 C 16.363 45.649 16.678 45.333 17.067 45.333 L 48.64 45.333 L 50.133 54.187 C 50.47 56.302 52.134 57.957 54.251 58.283 L 53.547 68.949 Z  M 54.997 110.933 L 55.467 103.829 L 71.893 94.357 L 72.533 103.296 L 56.704 112.448 L 54.997 110.933 Z  M 70.059 66.987 L 70.656 75.925 L 56.811 83.925 L 57.451 74.24 L 70.059 66.987 Z  M 57.813 69.12 L 58.539 58.453 L 69.461 58.453 L 69.739 62.336 L 57.813 69.12 Z  M 70.976 80.661 L 71.573 89.621 L 55.808 98.709 L 56.469 89.045 L 70.976 80.661 Z  M 64 119.467 L 59.84 115.456 L 72.811 107.968 L 73.003 110.741 L 64 119.467 Z  M 72.96 53.995 L 55.04 53.995 C 54.689 53.999 54.389 53.744 54.336 53.397 L 52.715 43.669 C 52.61 43.052 52.782 42.421 53.184 41.941 C 53.589 41.467 54.182 41.195 54.805 41.195 L 73.195 41.195 C 73.818 41.195 74.411 41.467 74.816 41.941 C 75.218 42.421 75.39 43.052 75.285 43.669 L 73.664 53.397 C 73.652 53.778 73.341 54.08 72.96 54.08 L 72.96 53.995 Z  M 73.749 58.261 C 75.859 57.938 77.522 56.293 77.867 54.187 L 79.36 45.333 L 110.933 45.333 C 111.322 45.333 111.637 45.649 111.637 46.037 L 111.637 59.733 C 111.626 64.827 107.493 68.949 102.4 68.949 L 100.267 68.949 L 100.267 68.8 C 100.267 67.855 99.891 66.949 99.223 66.281 C 98.555 65.613 97.649 65.237 96.704 65.237 L 88.171 65.237 C 87.228 65.237 86.324 65.613 85.659 66.282 C 84.994 66.951 84.624 67.857 84.629 68.8 L 84.629 68.949 L 74.453 68.949 L 73.749 58.261 Z  M 96 69.504 L 96 75.904 C 96.104 77.239 95.45 78.519 94.308 79.218 C 93.167 79.917 91.729 79.917 90.588 79.218 C 89.446 78.519 88.792 77.239 88.896 75.904 L 88.896 69.504 L 96 69.504 Z  M 76.8 103.637 L 74.667 73.216 L 84.544 73.216 L 84.544 75.904 C 84.393 78.795 85.849 81.533 88.331 83.024 C 90.812 84.515 93.913 84.515 96.395 83.024 C 98.876 81.533 100.332 78.795 100.181 75.904 L 100.181 73.216 L 102.315 73.216 C 105.123 73.216 107.861 72.335 110.144 70.699 L 110.144 100.075 C 110.145 102.009 108.601 103.591 106.667 103.637 L 76.8 103.637 Z " fill="rgb(255,255,255)"/></g></g></g></g></svg>