<?xml version="1.0" standalone="no"?><!-- Generator: Gravit.io --><svg xmlns="http://www.w3.org/2000/svg" xmlns:xlink="http://www.w3.org/1999/xlink" style="isolation:isolate" viewBox="0 0 91 91" width="91" height="91"><defs><clipPath id="_clipPath_nn7HiFsGxweVjtPRfxCLysuzpw40vuod"><rect width="91" height="91"/></clipPath></defs><g clip-path="url(#_clipPath_nn7HiFsGxweVjtPRfxCLysuzpw40vuod)"><path d=" M 45.489 3 C 22.065 3 3.002 22.063 3.002 45.5 C 3.002 68.933 22.065 88 45.489 88 C 68.931 88 87.998 68.933 87.998 45.5 C 87.998 22.06 68.931 3 45.489 3 Z  M 62.769 51.459 L 50.638 51.459 L 50.638 63.592 C 50.638 66.682 48.132 69.183 45.047 69.183 C 41.962 69.183 39.461 66.682 39.461 63.592 L 39.461 51.459 L 27.327 51.459 C 24.242 51.459 21.737 48.958 21.737 45.868 C 21.737 42.783 24.242 40.282 27.327 40.282 L 39.461 40.282 L 39.461 28.155 C 39.461 25.07 41.962 22.569 45.047 22.569 C 48.132 22.569 50.638 25.07 50.638 28.155 L 50.638 40.282 L 62.769 40.282 C 65.854 40.282 68.355 42.783 68.355 45.868 C 68.355 48.958 65.854 51.459 62.769 51.459 Z " fill="rgb(255,255,255)"/></g></svg>