<?xml version="1.0" standalone="no"?><!-- Generator: Gravit.io --><svg xmlns="http://www.w3.org/2000/svg" xmlns:xlink="http://www.w3.org/1999/xlink" style="isolation:isolate" viewBox="0 0 90.778 87.525" width="90.778" height="87.525"><defs><clipPath id="_clipPath_NjGuHqjKDn9jm9uJX6yhplUFq0fJFIuY"><rect width="90.778" height="87.525"/></clipPath></defs><g clip-path="url(#_clipPath_NjGuHqjKDn9jm9uJX6yhplUFq0fJFIuY)"><g id="icono-edicion"><g id="Group"><path d=" M 23.875 47.386 L 42.006 65.511 L 80.125 27.389 L 62.002 9.263 L 23.875 47.386 Z  M 66.301 23.089 C 67.56 24.351 67.56 26.395 66.301 27.655 L 44.226 49.724 C 43.597 50.357 42.771 50.67 41.948 50.67 C 41.117 50.67 40.293 50.357 39.664 49.724 C 38.403 48.462 38.403 46.419 39.664 45.159 L 61.736 23.089 C 62.995 21.828 65.04 21.828 66.301 23.089 Z " fill="rgb(255,255,255)"/><path d=" M 15.577 73.549 L 35.72 68.364 L 20.968 53.612 L 15.577 73.549 Z " fill="rgb(255,255,255)"/><path d=" M 87.478 10.504 L 78.885 1.908 C 76.337 -0.638 71.893 -0.635 69.355 1.908 L 66.563 4.701 L 84.692 22.825 L 87.478 20.037 C 90.101 17.407 90.101 13.13 87.478 10.504 Z " fill="rgb(255,255,255)"/></g><path d=" M 79.442 87.525 L 3.318 87.525 C 1.485 87.525 0 86.039 0 84.206 L 0 3.483 C 0 1.65 1.484 0.165 3.318 0.165 L 54.431 0.165 C 56.266 0.165 57.748 1.65 57.748 3.483 C 57.748 5.315 56.266 6.801 54.431 6.801 L 6.636 6.801 L 6.636 80.887 L 79.442 80.887 C 82.034 80.887 84.143 78.779 84.143 76.186 L 84.143 34.559 C 84.143 32.726 85.627 31.241 87.46 31.241 C 89.292 31.241 90.778 32.726 90.778 34.559 L 90.778 76.186 C 90.779 82.438 85.693 87.525 79.442 87.525 Z " fill="rgb(255,255,255)"/></g></g></svg>