<?xml version="1.0" standalone="no"?><!-- Generator: Gravit.io --><svg xmlns="http://www.w3.org/2000/svg" xmlns:xlink="http://www.w3.org/1999/xlink" style="isolation:isolate" viewBox="0 0 91 91" width="91" height="91"><defs><clipPath id="_clipPath_8TCzz9MNezx28iju9OWgtbx3s74qt9ca"><rect width="91" height="91"/></clipPath></defs><g clip-path="url(#_clipPath_8TCzz9MNezx28iju9OWgtbx3s74qt9ca)"><clipPath id="_clipPath_uFhHXgpXxgMxTRBE3ca1Q2Xg28eSzggi"><rect x="0" y="0" width="91" height="91" transform="matrix(1,0,0,1,0,0)" fill="rgb(255,255,255)"/></clipPath><g clip-path="url(#_clipPath_uFhHXgpXxgMxTRBE3ca1Q2Xg28eSzggi)"><g id="Group"><path d=" M 45.489 3 C 22.065 3 3.002 22.063 3.002 45.5 C 3.002 68.933 22.065 88 45.489 88 C 68.931 88 87.998 68.933 87.998 45.5 C 87.998 22.06 68.931 3 45.489 3 Z  M 62.769 51.459 L 27.327 51.459 C 24.242 51.459 21.737 48.958 21.737 45.868 C 21.737 42.783 24.242 40.282 27.327 40.282 L 62.769 40.282 C 65.854 40.282 68.355 42.783 68.355 45.868 C 68.355 48.958 65.854 51.459 62.769 51.459 Z " fill="rgb(255,255,255)"/></g></g></g></svg>