<svg id="Logo" xmlns="http://www.w3.org/2000/svg" viewBox="0 0 286.04 101.26"><defs><style>.cls-1,.cls-4{fill:#fff;}.cls-1{stroke:#06794f;}.cls-1,.cls-5{stroke-miterlimit:10;}.cls-2{fill:#ffcb64;}.cls-3{fill:#3ac97c;}.cls-4{font-size:33.88px;font-family:Heebo-Regular, Heebo;}.cls-5{fill:none;stroke:#fff;stroke-width:3px;}</style></defs><title>loguito</title><g id="icono"><g id="Icono-2" data-name="Icono"><rect class="cls-1" x="14.55" y="10.75" width="100" height="100" rx="12" transform="translate(-14.13 -9.89) rotate(-0.2)"/><rect class="cls-2" x="31.46" y="27.77" width="52" height="16" rx="3.06" transform="translate(-14.04 -9.92) rotate(-0.2)"/><rect class="cls-2" x="31.55" y="52.75" width="66" height="16" rx="3.06" transform="translate(-14.13 -9.89) rotate(-0.2)"/><rect class="cls-2" x="31.63" y="77.81" width="33" height="16" rx="3.06" transform="translate(-14.21 -9.95) rotate(-0.2)"/><path class="cls-3" d="M114.59,72.85,96.54,91,84,78.57a3.33,3.33,0,0,0-4.69,0L76.93,81a3.33,3.33,0,0,0,0,4.7l14.9,14.8,2.38,2.36a3.34,3.34,0,0,0,4.7,0l2.36-2.39L114.64,87h0l14.14-14.24a3.35,3.35,0,0,0,0-4.7l-2.39-2.36a3.33,3.33,0,0,0-4.69,0l-7.09,7.14Z" transform="translate(-13.91 -10.12)"/></g><g id="Letras"><text id="Palabra" class="cls-4" transform="translate(129.15 49.1)">Encuestas</text><line id="Linea" class="cls-5" x1="132.33" y1="65.15" x2="284.33" y2="65.15"/></g></g></svg>